# xmcd
# Track frame offsets:
# 150
# 20858
# 37106
# 48817
# 69788
# 92092
# 102779
# 123604
# 134536
# 157846
# 172858
# 193255
# 206530
# 221615
# 235972
#
# Disc length: 3395 seconds
# Revision: 0
# Processed by: cddbd v1.5.1PL2 Copyright (c) Steve Scherf et al.
# Submitted via: VisiTrax 2.10.0.244 - For more info visit www.synapsa.com
#
DISCID=d00d410f
DTITLE=Messenger - Mama
DYEAR=2006
DGENRE=Christian
TTITLE0=Time Goes By
TTITLE1=God Loves Me
TTITLE2=You Are The One
TTITLE3=Destiny
TTITLE4=Behind Evey Face
TTITLE5=It's Not Alright
TTITLE6=Sometimes
TTITLE7=He Lives In Me
TTITLE8=Mama
TTITLE9=Together Forever
TTITLE10=I'm Country
TTITLE11=My Son
TTITLE12=Run Away
TTITLE13=What If
TTITLE14=Ever So Softly
EXTD=
EXTT0=
EXTT1=
EXTT2=
EXTT3=
EXTT4=
EXTT5=
EXTT6=
EXTT7=
EXTT8=
EXTT9=
EXTT10=
EXTT11=
EXTT12=
EXTT13=
EXTT14=
PLAYORDER=
